# xmcd
#
# Track frame offsets:
#	150
#	20298
#	33540
#	49201
#	58411
#	72728
#	89426
#	108482
#	125379
#	136744
#	148264
#	161651
#	169863
#	187848
#	205843
#
# Disc length: 2848 seconds
#
# Revision: 0
# Processed by: cddbd v1.5.2PL0 Copyright (c) Steve Scherf et al.
# Submitted via: dBpowerAMP V4.0
#
DISCID=e00b1e0f
DTITLE=Tom Waits - Alice
DYEAR=1900
DGENRE=Blues
TTITLE0=Alice
TTITLE1=Everything You Can Think
TTITLE2=Flower's Grave
TTITLE3=No One Knows I'm Gone
TTITLE4=Kommienezuspadt
TTITLE5=Poor Edward
TTITLE6=Taple Top Joe
TTITLE7=Lost in the Harbour
TTITLE8=We're All Mad Here
TTITLE9=Watch Her Disappear
TTITLE10=Reeperbahn
TTITLE11=I'm Still Here
TTITLE12=Fish and Bird
TTITLE13=Barcarolle
TTITLE14=Fawn
EXTD=
EXTT0=
EXTT1=
EXTT2=
EXTT3=
EXTT4=
EXTT5=
EXTT6=
EXTT7=
EXTT8=
EXTT9=
EXTT10=
EXTT11=
EXTT12=
EXTT13=
EXTT14=
PLAYORDER=
